<svg height="512" viewBox="0 0 512 512" width="512" xmlns="http://www.w3.org/2000/svg"><g id="filled_outline" data-name="filled outline"><path d="m24 24h464v320h-464z" fill="#683b0d"/><path d="m24 312h464v16h-464z" fill="#533222"/><path d="m56 56h400v256h-400z" fill="#eaeae8"/><path d="m24 24h160a0 0 0 0 1 0 0 80 80 0 0 1 -80 80 80 80 0 0 1 -80-80 0 0 0 0 1 0 0z" fill="#e82f3e"/><path d="m56 24h96a0 0 0 0 1 0 0 48 48 0 0 1 -48 48 48 48 0 0 1 -48-48 0 0 0 0 1 0 0z" fill="#b62531"/><path d="m328 24h160a0 0 0 0 1 0 0 80 80 0 0 1 -80 80 80 80 0 0 1 -80-80 0 0 0 0 1 0 0z" fill="#e82f3e"/><path d="m360 24h96a0 0 0 0 1 0 0 48 48 0 0 1 -48 48 48 48 0 0 1 -48-48 0 0 0 0 1 0 0z" fill="#b62531"/><path d="m112 24-4.534 81.614a143.649 143.649 0 0 1 -51.466 102.386v32l40 104h-72v-320z" fill="#d32b39"/><path d="m24 208h32v32h-32z" fill="#d32b39"/><path d="m56 344-16-104h-16v104z" fill="#e82f3e"/><path d="m32 208 .658-.921a236.35 236.35 0 0 0 43.564-122.633l3.778-60.446h-56v184z" fill="#e82f3e"/><path d="m400 24 4.534 81.614a143.649 143.649 0 0 0 51.466 102.386v32l-40 104h72v-320z" fill="#d32b39"/><path d="m456 208h32v32h-32z" fill="#d32b39" transform="matrix(-1 0 0 -1 944 448)"/><g fill="#e82f3e"><path d="m456 344 16-104h16v104z"/><path d="m480 208-.658-.921a236.35 236.35 0 0 1 -43.564-122.633l-3.778-60.446h56v184z"/><path d="m296 480h-80v-74a14 14 0 0 1 14-14h52a14 14 0 0 1 14 14z"/></g><path d="m216 464h-80v-58a14 14 0 0 1 14-14h52a14 14 0 0 1 14 14z" fill="#d32b39"/><path d="m70 392h52a14 14 0 0 1 14 14v34a0 0 0 0 1 0 0h-80a0 0 0 0 1 0 0v-34a14 14 0 0 1 14-14z" fill="#e82f3e"/><path d="m390 392h52a14 14 0 0 1 14 14v34a0 0 0 0 1 0 0h-80a0 0 0 0 1 0 0v-34a14 14 0 0 1 14-14z" fill="#e82f3e"/><path d="m376 456h-80v-50a14 14 0 0 1 14-14h52a14 14 0 0 1 14 14z" fill="#d32b39"/><path d="m270 440h52a14 14 0 0 1 14 14v34a0 0 0 0 1 0 0h-80a0 0 0 0 1 0 0v-34a14 14 0 0 1 14-14z" fill="#e82f3e"/><path d="m190 440h52a14 14 0 0 1 14 14v34a0 0 0 0 1 0 0h-80a0 0 0 0 1 0 0v-34a14 14 0 0 1 14-14z" fill="#b62531"/><path d="m110 440h52a14 14 0 0 1 14 14v34a0 0 0 0 1 0 0h-80a0 0 0 0 1 0 0v-34a14 14 0 0 1 14-14z" fill="#e82f3e"/><path d="m350 440h52a14 14 0 0 1 14 14v34a0 0 0 0 1 0 0h-80a0 0 0 0 1 0 0v-34a14 14 0 0 1 14-14z" fill="#b62531"/><path d="m360 176h-104a8 8 0 0 1 0-16h104a8 8 0 0 1 0 16z" fill="#0296e5"/><path d="m256 272h-104a8 8 0 0 1 0-16h104a8 8 0 0 1 0 16z" fill="#0296e5"/><path d="m152 24h208a0 0 0 0 1 0 0v8a104 104 0 0 1 -104 104 104 104 0 0 1 -104-104v-8a0 0 0 0 1 0 0z" fill="#d32b39"/><path d="m184 24h144a0 0 0 0 1 0 0v8a72 72 0 0 1 -72 72 72 72 0 0 1 -72-72v-8a0 0 0 0 1 0 0z" fill="#e82f3e"/><path d="m216 24h80a0 0 0 0 1 0 0v8a40 40 0 0 1 -40 40 40 40 0 0 1 -40-40v-8a0 0 0 0 1 0 0z" fill="#b62531"/><circle cx="256" cy="216" fill="#0296e5" r="24"/><path d="m256 160a56 56 0 1 0 56 56 56 56 0 0 0 -56-56zm-24 64a8 8 0 1 1 8-8 8 8 0 0 1 -8 8zm24 24a8 8 0 1 1 8-8 8 8 0 0 1 -8 8zm0-48a8 8 0 1 1 8-8 8 8 0 0 1 -8 8zm24 24a8 8 0 1 1 8-8 8 8 0 0 1 -8 8z" fill="#a8a8a8"/><path d="m284.944 246.472v35.056a4 4 0 0 0 5.789 3.578l35.056-17.528a4 4 0 0 0 0-7.156l-35.056-17.528a4 4 0 0 0 -5.789 3.578z" fill="#e82f3e"/><path d="m488 16h-464a8 8 0 0 0 -8 8v320a8 8 0 0 0 8 8h464a8 8 0 0 0 8-8v-320a8 8 0 0 0 -8-8zm-386.506 320-6.153-16h321.319l-6.154 16zm321.319-32h-333.626l-25.187-65.485v-26.83a152.221 152.221 0 0 0 51.059-100.4 87.863 87.863 0 0 0 45.846-20.185 111.923 111.923 0 0 0 190.185.008 87.994 87.994 0 0 0 45.852 20.2 152.224 152.224 0 0 0 51.058 100.377v26.83zm-390.813-88h16v16h-16zm111.2-184a39.8 39.8 0 0 1 -25.27 29.521l1.637-29.521zm10.04 44.515a71.922 71.922 0 0 1 -37.168 18.459l.917-16.5a55.7 55.7 0 0 0 30.425-19.012 110.96 110.96 0 0 0 5.823 17.053zm239.193-44.515 1.638 29.5a40.3 40.3 0 0 1 -25.247-29.5zm2.582 46.482.917 16.5a72.008 72.008 0 0 1 -37.168-18.471 111.067 111.067 0 0 0 5.864-17.211 55.974 55.974 0 0 0 30.387 19.182zm68.985 153.518v-16h16v16zm16-38.185a228.086 228.086 0 0 1 -36.237-109.868l-3.247-51.947h39.484zm-55.516-161.815 3.31 52.945a244.067 244.067 0 0 0 37.17 115.055h-6.009a136.127 136.127 0 0 1 -46.434-94.83l-4.064-73.17zm-136.484 0a32 32 0 0 1 -64 0zm-32 48a48.054 48.054 0 0 0 48-48h16a64 64 0 0 1 -128 0h16a48.054 48.054 0 0 0 48 48zm0 32a80.091 80.091 0 0 0 80-80h16a96 96 0 0 1 -192 0h16a80.091 80.091 0 0 0 80 80zm-156.521-6.83a136.123 136.123 0 0 1 -46.434 94.83h-6.009a244.064 244.064 0 0 0 37.17-115.055l3.31-52.945h16.027zm-27.995-73.17-3.247 51.947a228.086 228.086 0 0 1 -36.237 109.868v-161.815zm-39.484 304v-88h1.137l13.538 88zm30.864 0-13.539-88h1.181l33.846 88zm398.63-88h1.181l-13.539 88h-21.488zm18.506 88h-14.675l13.538-88h1.137z"/><path d="m464 440v-34a22.025 22.025 0 0 0 -22-22h-52a21.9 21.9 0 0 0 -14 5.042 21.9 21.9 0 0 0 -14-5.042h-52a21.9 21.9 0 0 0 -14 5.042 21.9 21.9 0 0 0 -14-5.042h-52a21.9 21.9 0 0 0 -14 5.042 21.9 21.9 0 0 0 -14-5.042h-52a21.9 21.9 0 0 0 -14 5.042 21.9 21.9 0 0 0 -14-5.042h-52a22.025 22.025 0 0 0 -22 22v34a8 8 0 0 0 8 8h32.838a21.931 21.931 0 0 0 -.838 6v34a8 8 0 0 0 8 8h320a8 8 0 0 0 8-8v-34a21.931 21.931 0 0 0 -.838-6h32.838a8 8 0 0 0 8-8zm-154-40h52a6.006 6.006 0 0 1 6 6v26h-18a21.9 21.9 0 0 0 -14 5.042 21.9 21.9 0 0 0 -14-5.042h-18v-26a6.006 6.006 0 0 1 6-6zm-80 0h52a6.006 6.006 0 0 1 6 6v26h-18a21.9 21.9 0 0 0 -14 5.042 21.9 21.9 0 0 0 -14-5.042h-18v-26a6.006 6.006 0 0 1 6-6zm-80 0h52a6.006 6.006 0 0 1 6 6v26h-18a21.9 21.9 0 0 0 -14 5.042 21.9 21.9 0 0 0 -14-5.042h-18v-26a6.006 6.006 0 0 1 6-6zm-86 6a6.006 6.006 0 0 1 6-6h52a6.006 6.006 0 0 1 6 6v26h-64zm40 48a6.006 6.006 0 0 1 6-6h52a6.006 6.006 0 0 1 6 6v26h-64zm80 0a6.006 6.006 0 0 1 6-6h52a6.006 6.006 0 0 1 6 6v26h-64zm80 0a6.006 6.006 0 0 1 6-6h52a6.006 6.006 0 0 1 6 6v26h-64zm144 0v26h-64v-26a6.006 6.006 0 0 1 6-6h52a6.006 6.006 0 0 1 6 6zm40-22h-64v-26a6.006 6.006 0 0 1 6-6h52a6.006 6.006 0 0 1 6 6z"/><circle cx="256" cy="240" r="8"/><circle cx="256" cy="192" r="8"/><circle cx="280" cy="216" r="8"/><circle cx="232" cy="216" r="8"/><path d="m360 160h-104a55.963 55.963 0 0 0 -39.138 96h-64.862a8 8 0 0 0 0 16h104a55.724 55.724 0 0 0 20.944-4.047v13.575a11.983 11.983 0 0 0 17.368 10.733l35.055-17.528a12 12 0 0 0 0-21.466l-23.506-11.753a55.954 55.954 0 0 0 -10.722-65.514h64.861a8 8 0 0 0 0-16zm-67.056 115.056v-22.112l22.112 11.056zm3.056-59.056a39.733 39.733 0 0 1 -4.642 18.714 12.005 12.005 0 0 0 -14.414 11.758v3.609a39.613 39.613 0 0 1 -20.944 5.919 40 40 0 1 1 40-40z"/></g></svg>